<?xml version="1.0" encoding="UTF-8"?>
<svg width="100px" height="82px" viewBox="0 0 100 82" version="1.1" xmlns="http://www.w3.org/2000/svg" xmlns:xlink="http://www.w3.org/1999/xlink">
    <!-- Generator: Sketch 55 (78076) - https://sketchapp.com -->
    <title>twitter</title>
    <desc>Created with Sketch.</desc>
    <g id="Page-1" stroke="none" stroke-width="1" fill="none" fill-rule="evenodd">
        <g id="twitter" fill="#00ACED" fill-rule="nonzero">
            <path d="M100,9.68267974 C96.3194444,11.3135621 92.3702614,12.4196078 88.220915,12.9133987 C92.4576797,10.3763072 95.700817,6.35212418 97.2379085,1.57173203 C93.2637255,3.92124183 88.8769608,5.62728758 84.2027778,6.55212418 C80.4598039,2.55915033 75.1357843,0.0720588235 69.2305556,0.0720588235 C57.9014706,0.0720588235 48.7156863,9.25784314 48.7156863,20.580719 C48.7156863,22.1866013 48.8968954,23.7550654 49.2468954,25.254902 C32.2001634,24.3986928 17.0843137,16.2315359 6.96748366,3.82124183 C5.19901961,6.84575163 4.19297386,10.3699346 4.19297386,14.1318627 C4.19297386,21.2493464 7.81732026,27.5294118 13.3163399,31.2035948 C9.95441176,31.0911765 6.79248366,30.1663399 4.02434641,28.629085 L4.02434641,28.8852941 C4.02434641,38.820915 11.0980392,47.1130719 20.477451,49.0003268 C18.7589869,49.4627451 16.9468954,49.7189542 15.0722222,49.7189542 C13.747549,49.7189542 12.4665033,49.5877451 11.2104575,49.3377451 C13.8223856,57.4924837 21.3960784,63.422549 30.3694444,63.5851307 C23.3519608,69.0841503 14.5035948,72.3522876 4.89297386,72.3522876 C3.2370915,72.3522876 1.60604575,72.2522876 0.000163398693,72.0710784 C9.07973856,77.9013072 19.8589869,81.3006536 31.444281,81.3006536 C69.1808824,81.3006536 89.8083333,50.0439542 89.8083333,22.9366013 L89.7395425,20.2808824 C93.7699346,17.4062092 97.2566993,13.7944444 100,9.68267974 Z" id="Path"></path>
        </g>
    </g>
</svg>